M48
; DRILL file {KiCad 9.0.1} date 2025-07-12T13:39:13+1000
; FORMAT={-:-/ absolute / metric / decimal}
; #@! TF.CreationDate,2025-07-12T13:39:13+10:00
; #@! TF.GenerationSoftware,Kicad,Pcbnew,9.0.1
; #@! TF.FileFunction,Plated,1,2,PTH
FMAT,2
METRIC
; #@! TA.AperFunction,Plated,PTH,ViaDrill
T1C0.300
; #@! TA.AperFunction,Plated,PTH,ComponentDrill
T2C0.800
; #@! TA.AperFunction,Plated,PTH,ComponentDrill
T3C1.000
; #@! TA.AperFunction,Plated,PTH,ComponentDrill
T4C1.900
%
G90
G05
T1
X101.65Y-99.65
X110.064Y-91.08
X111.5Y-99.65
X112.5Y-114.5
X125.015Y-85.285
X142.826Y-87.712
X149.097Y-84.887
X151.997Y-85.291
X187.812Y-78.76
T2
X88.26Y-110.38
X88.26Y-112.84
X88.26Y-115.38
X88.26Y-117.92
X88.26Y-120.46
X88.26Y-123.0
X103.5Y-110.38
X103.5Y-112.84
X103.5Y-115.38
X103.5Y-117.92
X103.5Y-120.46
X103.5Y-123.0
X181.99Y-126.5
X187.0Y-126.5
T3
X79.0Y-89.96
X79.0Y-92.5
X88.0Y-78.38
X88.0Y-80.92
X88.0Y-83.46
X88.0Y-86.0
X88.0Y-88.54
X88.0Y-91.08
X88.0Y-93.62
X88.0Y-96.16
X113.96Y-127.5
X116.5Y-127.5
X119.0Y-121.0
X120.36Y-98.0
X120.36Y-113.24
X122.9Y-98.0
X122.9Y-113.24
X124.88Y-83.5
X125.44Y-98.0
X125.44Y-113.24
X127.42Y-83.5
X127.98Y-98.0
X127.98Y-113.24
X129.96Y-83.5
X130.52Y-98.0
X130.52Y-113.24
X132.5Y-83.5
X133.06Y-98.0
X133.06Y-113.24
X133.5Y-119.42
X133.5Y-121.96
X133.5Y-124.5
X135.04Y-83.5
X135.6Y-98.0
X135.6Y-113.24
X137.58Y-83.5
X138.14Y-98.0
X138.14Y-113.24
X138.5Y-94.0
X140.12Y-83.5
X140.68Y-98.0
X140.68Y-113.24
X143.22Y-98.0
X143.22Y-113.24
X145.76Y-98.0
X145.76Y-113.24
X148.0Y-94.5
X148.3Y-98.0
X148.3Y-113.24
X150.84Y-98.0
X150.84Y-113.24
X151.5Y-119.42
X151.5Y-121.96
X151.5Y-124.5
X153.38Y-98.0
X153.38Y-113.24
X153.46Y-79.0
X155.92Y-98.0
X155.92Y-113.24
X156.0Y-79.0
X158.46Y-98.0
X158.46Y-113.24
X161.0Y-98.0
X161.0Y-113.24
X161.0Y-119.212
X163.0Y-91.945
X163.54Y-98.0
X163.54Y-113.24
X166.08Y-98.0
X166.08Y-113.24
X168.62Y-98.0
X168.62Y-113.24
X171.16Y-98.0
X171.16Y-113.24
X173.5Y-129.5
X173.7Y-98.0
X173.7Y-113.24
X176.24Y-98.0
X176.24Y-113.24
X177.232Y-76.365
X177.232Y-93.635
X178.78Y-98.0
X178.78Y-113.24
X196.0Y-102.5
X205.5Y-121.65
X216.5Y-121.65
X217.768Y-76.365
X217.768Y-93.635
T4
X208.5Y-126.65
X213.5Y-126.65
M30
