%TF.GenerationSoftware,KiCad,Pcbnew,9.0.1*%
%TF.CreationDate,2025-07-12T13:39:09+10:00*%
%TF.ProjectId,TvcTHTPcb,54766354-4854-4506-9362-2e6b69636164,rev?*%
%TF.SameCoordinates,Original*%
%TF.FileFunction,Copper,L1,Top*%
%TF.FilePolarity,Positive*%
%FSLAX46Y46*%
G04 Gerber Fmt 4.6, Leading zero omitted, Abs format (unit mm)*
G04 Created by KiCad (PCBNEW 9.0.1) date 2025-07-12 13:39:09*
%MOMM*%
%LPD*%
G01*
G04 APERTURE LIST*
G04 Aperture macros list*
%AMRoundRect*
0 Rectangle with rounded corners*
0 $1 Rounding radius*
0 $2 $3 $4 $5 $6 $7 $8 $9 X,Y pos of 4 corners*
0 Add a 4 corners polygon primitive as box body*
4,1,4,$2,$3,$4,$5,$6,$7,$8,$9,$2,$3,0*
0 Add four circle primitives for the rounded corners*
1,1,$1+$1,$2,$3*
1,1,$1+$1,$4,$5*
1,1,$1+$1,$6,$7*
1,1,$1+$1,$8,$9*
0 Add four rect primitives between the rounded corners*
20,1,$1+$1,$2,$3,$4,$5,0*
20,1,$1+$1,$4,$5,$6,$7,0*
20,1,$1+$1,$6,$7,$8,$9,0*
20,1,$1+$1,$8,$9,$2,$3,0*%
G04 Aperture macros list end*
%TA.AperFunction,ComponentPad*%
%ADD10RoundRect,0.190500X-0.762000X-0.444500X0.762000X-0.444500X0.762000X0.444500X-0.762000X0.444500X0*%
%TD*%
%TA.AperFunction,ComponentPad*%
%ADD11RoundRect,0.190500X0.444500X-0.762000X0.444500X0.762000X-0.444500X0.762000X-0.444500X-0.762000X0*%
%TD*%
%TA.AperFunction,ComponentPad*%
%ADD12R,1.700000X1.700000*%
%TD*%
%TA.AperFunction,ComponentPad*%
%ADD13C,1.700000*%
%TD*%
%TA.AperFunction,ComponentPad*%
%ADD14C,1.905000*%
%TD*%
%TA.AperFunction,ComponentPad*%
%ADD15RoundRect,0.190500X-1.079500X-0.444500X1.079500X-0.444500X1.079500X0.444500X-1.079500X0.444500X0*%
%TD*%
%TA.AperFunction,ComponentPad*%
%ADD16C,3.500000*%
%TD*%
%TA.AperFunction,ComponentPad*%
%ADD17R,3.500000X3.500000*%
%TD*%
%TA.AperFunction,ComponentPad*%
%ADD18C,1.400000*%
%TD*%
%TA.AperFunction,ViaPad*%
%ADD19C,0.600000*%
%TD*%
%TA.AperFunction,Conductor*%
%ADD20C,0.200000*%
%TD*%
%TA.AperFunction,Conductor*%
%ADD21C,0.500000*%
%TD*%
%TA.AperFunction,Conductor*%
%ADD22C,1.367030*%
%TD*%
%TA.AperFunction,Conductor*%
%ADD23C,0.300000*%
%TD*%
%TA.AperFunction,Conductor*%
%ADD24C,1.200000*%
%TD*%
G04 APERTURE END LIST*
D10*
%TO.P,TPSDA1,1,1*%
%TO.N,Net-(J1-Pin_6)*%
X138500000Y-94000000D03*
%TD*%
%TO.P,TPSCL1,1,1*%
%TO.N,Net-(J1-Pin_4)*%
X148000000Y-94500000D03*
%TD*%
%TO.P,TPGND1,1,1*%
%TO.N,Net-(J1-Pin_3)*%
X173500000Y-129500000D03*
%TD*%
%TO.P,TP5V1,1,1*%
%TO.N,Net-(J5-Pin_1)*%
X161000000Y-119212500D03*
%TD*%
D11*
%TO.P,Teensy4.1,48,33*%
%TO.N,Net-(J11-Pin_1)*%
X178780000Y-98000000D03*
%TO.P,Teensy4.1,47,34*%
%TO.N,Net-(J12-Pin_1)*%
X176240000Y-98000000D03*
%TO.P,Teensy4.1,46,35*%
%TO.N,unconnected-(Teensy4.1-35-Pad46)*%
X173700000Y-98000000D03*
%TO.P,Teensy4.1,45,36*%
%TO.N,unconnected-(Teensy4.1-36-Pad45)*%
X171160000Y-98000000D03*
%TO.P,Teensy4.1,44,37*%
%TO.N,unconnected-(Teensy4.1-37-Pad44)*%
X168620000Y-98000000D03*
%TO.P,Teensy4.1,43,38*%
%TO.N,unconnected-(Teensy4.1-38-Pad43)*%
X166080000Y-98000000D03*
%TO.P,Teensy4.1,42,39*%
%TO.N,unconnected-(Teensy4.1-39-Pad42)*%
X163540000Y-98000000D03*
%TO.P,Teensy4.1,41,40*%
%TO.N,unconnected-(Teensy4.1-40-Pad41)*%
X161000000Y-98000000D03*
%TO.P,Teensy4.1,40,41*%
%TO.N,unconnected-(Teensy4.1-41-Pad40)*%
X158460000Y-98000000D03*
%TO.P,Teensy4.1,39,GND*%
%TO.N,unconnected-(Teensy4.1-GND-Pad39)*%
X155920000Y-98000000D03*
%TO.P,Teensy4.1,38,13*%
%TO.N,Net-(J3-Pin_4)*%
X153380000Y-98000000D03*
%TO.P,Teensy4.1,37,14*%
%TO.N,unconnected-(Teensy4.1-14-Pad37)*%
X150840000Y-98000000D03*
%TO.P,Teensy4.1,36,15*%
%TO.N,unconnected-(Teensy4.1-15-Pad36)*%
X148300000Y-98000000D03*
%TO.P,Teensy4.1,35,16*%
%TO.N,unconnected-(Teensy4.1-16-Pad35)*%
X145760000Y-98000000D03*
%TO.P,Teensy4.1,34,17*%
%TO.N,unconnected-(Teensy4.1-17-Pad34)*%
X143220000Y-98000000D03*
%TO.P,Teensy4.1,33,18*%
%TO.N,Net-(J1-Pin_6)*%
X140680000Y-98000000D03*
%TO.P,Teensy4.1,32,19*%
%TO.N,Net-(J1-Pin_4)*%
X138140000Y-98000000D03*
%TO.P,Teensy4.1,31,20*%
%TO.N,unconnected-(Teensy4.1-20-Pad31)*%
X135600000Y-98000000D03*
%TO.P,Teensy4.1,30,21*%
%TO.N,unconnected-(Teensy4.1-21-Pad30)*%
X133060000Y-98000000D03*
%TO.P,Teensy4.1,29,22*%
%TO.N,unconnected-(Teensy4.1-22-Pad29)*%
X130520000Y-98000000D03*
%TO.P,Teensy4.1,28,23*%
%TO.N,unconnected-(Teensy4.1-23-Pad28)*%
X127980000Y-98000000D03*
%TO.P,Teensy4.1,27,3V3*%
%TO.N,Net-(J1-Pin_1)*%
X125440000Y-98000000D03*
%TO.P,Teensy4.1,26,GND*%
%TO.N,Net-(J1-Pin_3)*%
X122900000Y-98000000D03*
%TO.P,Teensy4.1,25,5V*%
%TO.N,Net-(J5-Pin_1)*%
X120360000Y-98000000D03*
%TO.P,Teensy4.1,24,32*%
%TO.N,unconnected-(Teensy4.1-32-Pad24)*%
X178780000Y-113240000D03*
%TO.P,Teensy4.1,23,31*%
%TO.N,unconnected-(Teensy4.1-31-Pad23)*%
X176240000Y-113240000D03*
%TO.P,Teensy4.1,22,30*%
%TO.N,unconnected-(Teensy4.1-30-Pad22)*%
X173700000Y-113240000D03*
%TO.P,Teensy4.1,21,29*%
%TO.N,unconnected-(Teensy4.1-29-Pad21)*%
X171160000Y-113240000D03*
%TO.P,Teensy4.1,20,28*%
%TO.N,unconnected-(Teensy4.1-28-Pad20)*%
X168620000Y-113240000D03*
%TO.P,Teensy4.1,19,27*%
%TO.N,unconnected-(Teensy4.1-27-Pad19)*%
X166080000Y-113240000D03*
%TO.P,Teensy4.1,18,26*%
%TO.N,unconnected-(Teensy4.1-26-Pad18)*%
X163540000Y-113240000D03*
%TO.P,Teensy4.1,17,25*%
%TO.N,unconnected-(Teensy4.1-25-Pad17)*%
X161000000Y-113240000D03*
%TO.P,Teensy4.1,16,24*%
%TO.N,unconnected-(Teensy4.1-24-Pad16)*%
X158460000Y-113240000D03*
%TO.P,Teensy4.1,15,3V3*%
%TO.N,unconnected-(Teensy4.1-3V3-Pad15)*%
X155920000Y-113240000D03*
%TO.P,Teensy4.1,14,12*%
%TO.N,Net-(J3-Pin_3)*%
X153380000Y-113240000D03*
%TO.P,Teensy4.1,13,11*%
%TO.N,Net-(J3-Pin_2)*%
X150840000Y-113240000D03*
%TO.P,Teensy4.1,12,10*%
%TO.N,Net-(J3-Pin_1)*%
X148300000Y-113240000D03*
%TO.P,Teensy4.1,11,9*%
%TO.N,unconnected-(Teensy4.1-9-Pad11)*%
X145760000Y-113240000D03*
%TO.P,Teensy4.1,10,8*%
%TO.N,unconnected-(Teensy4.1-8-Pad10)*%
X143220000Y-113240000D03*
%TO.P,Teensy4.1,9,7*%
%TO.N,unconnected-(Teensy4.1-7-Pad9)*%
X140680000Y-113240000D03*
%TO.P,Teensy4.1,8,6*%
%TO.N,unconnected-(Teensy4.1-6-Pad8)*%
X138140000Y-113240000D03*
%TO.P,Teensy4.1,7,5*%
%TO.N,Net-(J7-Pin_1)*%
X135600000Y-113240000D03*
%TO.P,Teensy4.1,6,4*%
%TO.N,Net-(J6-Pin_1)*%
X133060000Y-113240000D03*
%TO.P,Teensy4.1,5,3*%
%TO.N,unconnected-(Teensy4.1-3-Pad5)*%
X130520000Y-113240000D03*
%TO.P,Teensy4.1,4,2*%
%TO.N,Net-(J13-Pin_1)*%
X127980000Y-113240000D03*
%TO.P,Teensy4.1,3,1*%
%TO.N,unconnected-(Teensy4.1-1-Pad3)*%
X125440000Y-113240000D03*
%TO.P,Teensy4.1,2,0*%
%TO.N,unconnected-(Teensy4.1-0-Pad2)*%
X122900000Y-113240000D03*
%TO.P,Teensy4.1,1,GND*%
%TO.N,unconnected-(Teensy4.1-GND-Pad1)*%
X120360000Y-113240000D03*
%TD*%
D10*
%TO.P,J10,1,Pin_1*%
%TO.N,Net-(J1-Pin_1)*%
X153460000Y-79000000D03*
%TO.P,J10,2,Pin_2*%
%TO.N,Net-(J1-Pin_3)*%
X156000000Y-79000000D03*
%TD*%
D12*
%TO.P,J3,1,Pin_1*%
%TO.N,Net-(J3-Pin_1)*%
X124880000Y-83500000D03*
D13*
%TO.P,J3,2,Pin_2*%
%TO.N,Net-(J3-Pin_2)*%
X127420000Y-83500000D03*
%TO.P,J3,3,Pin_3*%
%TO.N,Net-(J3-Pin_3)*%
X129960000Y-83500000D03*
%TO.P,J3,4,Pin_4*%
%TO.N,Net-(J3-Pin_4)*%
X132500000Y-83500000D03*
%TO.P,J3,5,Pin_5*%
%TO.N,Net-(J1-Pin_3)*%
X135040000Y-83500000D03*
%TO.P,J3,6,Pin_6*%
%TO.N,unconnected-(J3-Pin_6-Pad6)*%
X137580000Y-83500000D03*
%TO.P,J3,7,Pin_7*%
%TO.N,Net-(J1-Pin_1)*%
X140120000Y-83500000D03*
%TD*%
D10*
%TO.P,J13,1,Pin_1*%
%TO.N,Net-(J13-Pin_1)*%
X119000000Y-121000000D03*
%TD*%
D12*
%TO.P,J6,1,Pin_1*%
%TO.N,Net-(J6-Pin_1)*%
X133500000Y-119420000D03*
D13*
%TO.P,J6,2,Pin_2*%
%TO.N,Net-(J5-Pin_1)*%
X133500000Y-121960000D03*
%TO.P,J6,3,Pin_3*%
%TO.N,Net-(J1-Pin_3)*%
X133500000Y-124500000D03*
%TD*%
D10*
%TO.P,J9,1,Pin_1*%
%TO.N,Net-(J1-Pin_1)*%
X113960000Y-127500000D03*
%TO.P,J9,2,Pin_2*%
%TO.N,Net-(J1-Pin_3)*%
X116500000Y-127500000D03*
%TD*%
D14*
%TO.P,J5,1,Pin_1*%
%TO.N,Net-(J5-Pin_1)*%
X177232000Y-76365500D03*
%TO.P,J5,2,Pin_2*%
%TO.N,Net-(J1-Pin_3)*%
X177232000Y-93634500D03*
%TO.P,J5,3,Pin_3*%
%TO.N,Net-(J5-Pin_3)*%
X217768000Y-76365500D03*
%TO.P,J5,4,Pin_4*%
%TO.N,Net-(J4-Pin_2)*%
X217768000Y-93634500D03*
%TD*%
D12*
%TO.P,J7,1,Pin_1*%
%TO.N,Net-(J7-Pin_1)*%
X151500000Y-119420000D03*
D13*
%TO.P,J7,2,Pin_2*%
%TO.N,Net-(J5-Pin_1)*%
X151500000Y-121960000D03*
%TO.P,J7,3,Pin_3*%
%TO.N,Net-(J1-Pin_3)*%
X151500000Y-124500000D03*
%TD*%
D10*
%TO.P,J12,1,Pin_1*%
%TO.N,Net-(J12-Pin_1)*%
X163000000Y-91945000D03*
%TD*%
D11*
%TO.P,J8,1,Pin_1*%
%TO.N,Net-(J1-Pin_3)*%
X79000000Y-92500000D03*
%TO.P,J8,2,Pin_2*%
%TO.N,Net-(J1-Pin_1)*%
X79000000Y-89960000D03*
%TD*%
D15*
%TO.P,J2,1,Pin_1*%
%TO.N,unconnected-(J2-Pin_1-Pad1)*%
X88260000Y-110380000D03*
%TO.P,J2,2,Pin_2*%
%TO.N,unconnected-(J2-Pin_2-Pad2)*%
X88260000Y-112840000D03*
%TO.P,J2,3,Pin_3*%
%TO.N,unconnected-(J2-Pin_3-Pad3)*%
X88260000Y-115380000D03*
%TO.P,J2,4,Pin_4*%
%TO.N,unconnected-(J2-Pin_4-Pad4)*%
X88260000Y-117920000D03*
%TO.P,J2,5,Pin_5*%
%TO.N,unconnected-(J2-Pin_5-Pad5)*%
X88260000Y-120460000D03*
%TO.P,J2,6,Pin_6*%
%TO.N,unconnected-(J2-Pin_6-Pad6)*%
X88260000Y-123000000D03*
%TO.P,J2,7,Pin_7*%
%TO.N,unconnected-(J2-Pin_7-Pad7)*%
X103500000Y-110380000D03*
%TO.P,J2,8,Pin_8*%
%TO.N,Net-(J1-Pin_6)*%
X103500000Y-112840000D03*
%TO.P,J2,9,Pin_9*%
%TO.N,Net-(J1-Pin_4)*%
X103500000Y-115380000D03*
%TO.P,J2,10,Pin_10*%
%TO.N,Net-(J1-Pin_3)*%
X103500000Y-117920000D03*
%TO.P,J2,11,Pin_11*%
%TO.N,unconnected-(J2-Pin_11-Pad11)*%
X103500000Y-120460000D03*
%TO.P,J2,12,Pin_12*%
%TO.N,Net-(J1-Pin_1)*%
X103500000Y-123000000D03*
%TD*%
%TO.P,Fuse1,1*%
%TO.N,Net-(J5-Pin_3)*%
X181990000Y-126500000D03*
%TO.P,Fuse1,2*%
%TO.N,Net-(J4-Pin_1)*%
X187000000Y-126500000D03*
%TD*%
D16*
%TO.P,J4,2,Pin_2*%
%TO.N,Net-(J4-Pin_2)*%
X213500000Y-126650000D03*
D17*
%TO.P,J4,1,Pin_1*%
%TO.N,Net-(J4-Pin_1)*%
X208500000Y-126650000D03*
D18*
%TO.P,J4,*%
%TO.N,*%
X216500000Y-121650000D03*
X205500000Y-121650000D03*
%TD*%
D12*
%TO.P,J1,1,Pin_1*%
%TO.N,Net-(J1-Pin_1)*%
X88000000Y-78380000D03*
D13*
%TO.P,J1,2,Pin_2*%
%TO.N,unconnected-(J1-Pin_2-Pad2)*%
X88000000Y-80920000D03*
%TO.P,J1,3,Pin_3*%
%TO.N,Net-(J1-Pin_3)*%
X88000000Y-83460000D03*
%TO.P,J1,4,Pin_4*%
%TO.N,Net-(J1-Pin_4)*%
X88000000Y-86000000D03*
%TO.P,J1,5,Pin_5*%
%TO.N,unconnected-(J1-Pin_5-Pad5)*%
X88000000Y-88540000D03*
%TO.P,J1,6,Pin_6*%
%TO.N,Net-(J1-Pin_6)*%
X88000000Y-91080000D03*
%TO.P,J1,7,Pin_7*%
%TO.N,unconnected-(J1-Pin_7-Pad7)*%
X88000000Y-93620000D03*
%TO.P,J1,8,Pin_8*%
%TO.N,unconnected-(J1-Pin_8-Pad8)*%
X88000000Y-96160000D03*
%TD*%
D10*
%TO.P,J11,1,Pin_1*%
%TO.N,Net-(J11-Pin_1)*%
X196000000Y-102500000D03*
%TD*%
D19*
%TO.N,Net-(J5-Pin_3)*%
X187811700Y-78759500D03*
%TO.N,Net-(J1-Pin_1)*%
X111500000Y-99649600D03*
%TO.N,Net-(J1-Pin_6)*%
X110063900Y-91080000D03*
%TO.N,Net-(J1-Pin_3)*%
X125015400Y-85285100D03*
%TO.N,Net-(J1-Pin_4)*%
X101649600Y-99649600D03*
%TO.N,Net-(J3-Pin_1)*%
X142826000Y-87712400D03*
%TO.N,Net-(J3-Pin_4)*%
X151997300Y-85291100D03*
%TO.N,Net-(J3-Pin_3)*%
X149097000Y-84887300D03*
%TO.N,Net-(J13-Pin_1)*%
X112500000Y-114500000D03*
%TD*%
D20*
%TO.N,Net-(J3-Pin_1)*%
X126031700Y-83787900D02*
X125167900Y-83787900D01*
X125167900Y-83787900D02*
X124880000Y-83500000D01*
%TO.N,Net-(J1-Pin_4)*%
X145500000Y-101500000D02*
X147000000Y-100000000D01*
X141640000Y-101500000D02*
X145500000Y-101500000D01*
X138140000Y-98000000D02*
X141640000Y-101500000D01*
X147000000Y-100000000D02*
X147000000Y-95500000D01*
X147000000Y-95500000D02*
X148000000Y-94500000D01*
%TO.N,Net-(J1-Pin_6)*%
X138500000Y-94000000D02*
X140680000Y-96180000D01*
X140680000Y-96180000D02*
X140680000Y-98000000D01*
D21*
%TO.N,Net-(J1-Pin_3)*%
X151500000Y-124500000D02*
X156500000Y-129500000D01*
X156500000Y-129500000D02*
X173500000Y-129500000D01*
D22*
%TO.N,Net-(J5-Pin_3)*%
X217768000Y-76365500D02*
X190205700Y-76365500D01*
X190205700Y-76365500D02*
X187811700Y-78759500D01*
D20*
%TO.N,Net-(J1-Pin_1)*%
X140120000Y-83500000D02*
X144620000Y-79000000D01*
X79000000Y-89960000D02*
X79000000Y-85000000D01*
X111500000Y-99649600D02*
X123790400Y-99649600D01*
X83000000Y-80000000D02*
X84620000Y-78380000D01*
X84620000Y-78380000D02*
X88000000Y-78380000D01*
X79000000Y-85000000D02*
X83000000Y-81000000D01*
X123790400Y-99649600D02*
X125440000Y-98000000D01*
X144620000Y-79000000D02*
X153460000Y-79000000D01*
X88000000Y-78380000D02*
X135000000Y-78380000D01*
X83000000Y-81000000D02*
X83000000Y-80000000D01*
X135000000Y-78380000D02*
X140120000Y-83500000D01*
%TO.N,Net-(J1-Pin_6)*%
X133760000Y-91080000D02*
X110063900Y-91080000D01*
X110063900Y-91080000D02*
X88000000Y-91080000D01*
X140680000Y-98000000D02*
X133760000Y-91080000D01*
%TO.N,Net-(J1-Pin_3)*%
X82500000Y-85500000D02*
X84540000Y-83460000D01*
D23*
X142024601Y-85500000D02*
X137040000Y-85500000D01*
X167457800Y-83860300D02*
X165597500Y-82000000D01*
D21*
X151500000Y-124500000D02*
X150000000Y-126000000D01*
D23*
X177232000Y-93634500D02*
X167457800Y-83860300D01*
X165597500Y-82000000D02*
X145524601Y-82000000D01*
X88000000Y-83460000D02*
X89825100Y-85285100D01*
D20*
X82500000Y-89000000D02*
X82500000Y-85500000D01*
D21*
X156000000Y-79000000D02*
X162597500Y-79000000D01*
X135000000Y-126000000D02*
X133500000Y-124500000D01*
D20*
X116500000Y-127500000D02*
X117340000Y-127500000D01*
D21*
X103500000Y-117920000D02*
X126920000Y-117920000D01*
X162597500Y-79000000D02*
X165597500Y-82000000D01*
X150000000Y-126000000D02*
X135000000Y-126000000D01*
D20*
X79000000Y-92500000D02*
X82500000Y-89000000D01*
X84540000Y-83460000D02*
X88000000Y-83460000D01*
D21*
X126920000Y-117920000D02*
X133500000Y-124500000D01*
D23*
X89825100Y-85285100D02*
X125015400Y-85285100D01*
X145524601Y-82000000D02*
X142024601Y-85500000D01*
X137040000Y-85500000D02*
X135040000Y-83500000D01*
D21*
X117340000Y-127500000D02*
X126920000Y-117920000D01*
D20*
%TO.N,Net-(J1-Pin_4)*%
X135877600Y-100262400D02*
X102262400Y-100262400D01*
X138140000Y-98000000D02*
X135877600Y-100262400D01*
X102262400Y-100262400D02*
X101649600Y-99649600D01*
%TO.N,Net-(J3-Pin_1)*%
X142826000Y-87712400D02*
X129956200Y-87712400D01*
X129956200Y-87712400D02*
X126031700Y-83787900D01*
%TO.N,Net-(J3-Pin_4)*%
X150968200Y-84262000D02*
X151997300Y-85291100D01*
X135500000Y-86500000D02*
X132500000Y-83500000D01*
X148762000Y-84262000D02*
X146524000Y-86500000D01*
X146524000Y-86500000D02*
X135500000Y-86500000D01*
X148762000Y-84262000D02*
X150968200Y-84262000D01*
%TO.N,Net-(J3-Pin_3)*%
X149097000Y-84887300D02*
X148491600Y-85492700D01*
X146984300Y-87000000D02*
X148491600Y-85492700D01*
X148491600Y-85492700D02*
X149097000Y-84887300D01*
X129960000Y-83500000D02*
X133460000Y-87000000D01*
X133460000Y-87000000D02*
X146984300Y-87000000D01*
X148491600Y-85492700D02*
X149097000Y-84887300D01*
%TO.N,Net-(J4-Pin_1)*%
X187150000Y-126650000D02*
X187000000Y-126500000D01*
D22*
X208500000Y-126650000D02*
X187150000Y-126650000D01*
D24*
%TO.N,Net-(J5-Pin_1)*%
X151500000Y-121960000D02*
X133500000Y-121960000D01*
D20*
%TO.N,Net-(J7-Pin_1)*%
X135600000Y-113240000D02*
X141780000Y-119420000D01*
X141780000Y-119420000D02*
X151500000Y-119420000D01*
%TO.N,Net-(J11-Pin_1)*%
X183280000Y-102500000D02*
X196000000Y-102500000D01*
X178780000Y-98000000D02*
X183280000Y-102500000D01*
%TO.N,Net-(J12-Pin_1)*%
X163000000Y-91945000D02*
X170185000Y-91945000D01*
X170185000Y-91945000D02*
X176240000Y-98000000D01*
%TO.N,Net-(J13-Pin_1)*%
X126726500Y-111986500D02*
X115013500Y-111986500D01*
X115013500Y-111986500D02*
X112500000Y-114500000D01*
X127980000Y-113240000D02*
X126726500Y-111986500D01*
%TD*%
M02*
